<?xml version="1.0" encoding="UTF-8" standalone="no"?>
<!-- Created with Inkscape (http://www.inkscape.org/) -->

<svg
   xmlns:dc="http://purl.org/dc/elements/1.1/"
   xmlns:cc="http://creativecommons.org/ns#"
   xmlns:rdf="http://www.w3.org/1999/02/22-rdf-syntax-ns#"
   xmlns:svg="http://www.w3.org/2000/svg"
   xmlns="http://www.w3.org/2000/svg"
   xmlns:sodipodi="http://sodipodi.sourceforge.net/DTD/sodipodi-0.dtd"
   xmlns:inkscape="http://www.inkscape.org/namespaces/inkscape"
   width="64"
   height="64"
   id="svg5873"
   version="1.1"
   inkscape:version="0.91 r13725"
   viewBox="0 0 64 64"
   sodipodi:docname="Pouces.svg">
  <defs
     id="defs5875" />
  <sodipodi:namedview
     id="base"
     pagecolor="#ffffff"
     bordercolor="#666666"
     borderopacity="1.0"
     inkscape:pageopacity="0.0"
     inkscape:pageshadow="2"
     inkscape:zoom="4.0824368"
     inkscape:cx="-24.655802"
     inkscape:cy="36.883952"
     inkscape:current-layer="layer1"
     showgrid="true"
     inkscape:document-units="px"
     inkscape:grid-bbox="true"
     inkscape:window-width="1360"
     inkscape:window-height="706"
     inkscape:window-x="-8"
     inkscape:window-y="-8"
     inkscape:window-maximized="1"
     showguides="true"
     inkscape:guide-bbox="true">
    <sodipodi:guide
       position="-7.4710281,43.356458"
       orientation="-0.70710678,0.70710678"
       id="guide7112" />
  </sodipodi:namedview>
  <metadata
     id="metadata5878">
    <rdf:RDF>
      <cc:Work
         rdf:about="">
        <dc:format>image/svg+xml</dc:format>
        <dc:type
           rdf:resource="http://purl.org/dc/dcmitype/StillImage" />
        <dc:title />
      </cc:Work>
    </rdf:RDF>
  </metadata>
  <g
     id="layer1"
     inkscape:label="Layer 1"
     inkscape:groupmode="layer">
    <path
       style="fill:none;fill-opacity:1;fill-rule:evenodd;stroke:#c96e31;stroke-width:0.2;stroke-linecap:butt;stroke-linejoin:miter;stroke-miterlimit:4;stroke-dasharray:none;stroke-opacity:1;opacity:0.98"
       d="m 47.940837,43.012231 0.01335,-1.058691 0.05062,-1.064568 0.135139,-0.86759 0.352156,-1.11535 0.659723,-0.720577 1.353431,-0.859781 1.242767,-0.813132 1.19371,-0.942072 1.155081,-1.03666 0.72147,-0.699009 0.579264,-0.676523 0.725248,-0.930209 0.594208,-0.95128 0.249239,-0.840603 0.130721,-0.893095 0.06426,-0.89911 -0.02114,-0.705345 0.802543,-0.104369 1.162913,0.05124 0.780147,0.377796 0.351706,0.586849 0.451868,0.893452 0.111605,0.716558 0.04815,0.905073 0.0064,0.923752 -0.295961,0.946514 -0.330028,0.807541 -0.507375,0.824679 -0.536566,0.755025 -0.63629,0.742286 -0.596944,0.626298 -0.567023,0.421774 -0.630249,0.680301 -0.357491,0.720633 -0.173915,0.76949 -0.119727,0.868674 -0.148278,0.960934 -0.190999,0.876809 -0.323918,0.748371 -0.343052,0.852707 -0.887856,0.287015 -1.190539,0.08104 -1.444353,0 -1.400667,0 -1.310503,-0.08052 -0.713024,-0.475933 z"
       id="path6763"
       inkscape:connector-curvature="0"
       sodipodi:nodetypes="cccccccccccccccccccccccccccccccccccccccccccccccc"
       inkscape:export-xdpi="90"
       inkscape:export-ydpi="90" />
    <path
       style="fill:#c96e31;fill-opacity:1;fill-rule:evenodd;stroke:none;stroke-width:1px;stroke-linecap:butt;stroke-linejoin:miter;stroke-opacity:1;opacity:0.98"
       d="m 9.6145628,35.013558 -0.695257,0.6155 -1.182974,0.921155 -1.231617,0.795544 -1.341872,0.841003 -0.65375,0.704624 -0.348925,1.090433 -0.134252,0.848778 -0.04994,1.041385 -0.01362,1.035402 0.208188,0.675314 0.706931,0.465362 1.299067,0.07836 1.38792,0 1.432023,0 1.1797312,-0.07896 0.880097,-0.280534 0.339846,-0.834423 0.321037,-0.731541 0.18938,-0.857751 0.147223,-0.939698 0.118687,-0.849377 0.172517,-0.753074 0.354114,-0.704624 0.624564,-0.665146 0.562303,-0.412726 0.591487,-0.612509 0.63105,-0.725559 0.479935,-0.666941 -5.9738942,0 z"
       id="path6763-8"
       inkscape:connector-curvature="0"
       inkscape:export-xdpi="90"
       inkscape:export-ydpi="90" />
    <path
       style="fill:#c96e31;fill-opacity:1;fill-rule:evenodd;stroke:#c96e31;stroke-width:0.2;stroke-linecap:butt;stroke-linejoin:miter;stroke-opacity:1;stroke-miterlimit:4;stroke-dasharray:none;opacity:0.98"
       d="m 13.73092,28.23502 -0.795784,0.101685 0.0214,0.690269 -0.06421,0.879284 -0.129063,0.873304 -0.247102,0.821861 -0.588894,0.930726 -0.719253,0.90979 -0.573976,0.661557 -0.7153632,0.683689 -0.287313,0.254215 5.9083882,0 0.457887,-0.734532 0.326873,-0.789561 0.293152,-0.925941 -0.0058,-0.90321 -0.04799,-0.885266 -0.110906,-0.700438 -0.447505,-0.873901 -0.348929,-0.574226 -0.773075,-0.369658 -1.152493,-0.04965 z"
       id="path6763-9"
       inkscape:connector-curvature="0"
       inkscape:export-xdpi="90"
       inkscape:export-ydpi="90" />
    <path
       style="fill:none;fill-rule:evenodd;stroke:none;stroke-width:1px;stroke-linecap:butt;stroke-linejoin:miter;stroke-opacity:1;opacity:0.98"
       d="m 53.036287,35.074791 c 0.606225,-0.433018 0.606225,-0.562923 0.606225,-0.562923 l 5.066306,0.129905 -0.303113,0.346415 z"
       id="path6878"
       inkscape:connector-curvature="0"
       inkscape:export-xdpi="90"
       inkscape:export-ydpi="90" />
    <path
       style="fill:none;fill-opacity:1;fill-rule:evenodd;stroke:#c96e31;stroke-width:0.2;stroke-linecap:butt;stroke-linejoin:miter;stroke-miterlimit:4;stroke-dasharray:none;stroke-opacity:1;opacity:0.98"
       d="m 25.386477,42.918727 0.01335,-1.058691 0.05062,-1.064568 0.135139,-0.86759 0.352156,-1.11535 0.659723,-0.720577 1.353431,-0.859782 1.242767,-0.813132 1.19371,-0.942072 1.155081,-1.03666 0.72147,-0.699009 0.579264,-0.676523 0.725248,-0.930209 0.594208,-0.95128 0.249239,-0.840603 0.130721,-0.893095 0.06426,-0.89911 -0.02114,-0.705345 0.802544,-0.104369 1.162913,0.05124 0.780147,0.377796 0.351706,0.586849 0.451868,0.893452 0.111605,0.716558 0.04815,0.905073 0.0064,0.923752 -0.295961,0.946514 -0.330028,0.807541 -0.507375,0.824679 -0.536566,0.755025 -0.63629,0.742286 -0.596944,0.626298 -0.567024,0.421774 -0.630249,0.680302 -0.357491,0.720633 -0.173915,0.76949 -0.119727,0.868674 -0.148278,0.960934 -0.190999,0.876809 -0.323918,0.748371 -0.343052,0.852707 -0.887856,0.287015 -1.190539,0.08104 -1.444353,0 -1.400667,0 -1.310503,-0.08052 -0.713024,-0.475933 z"
       id="path6763-3-6"
       inkscape:connector-curvature="0"
       sodipodi:nodetypes="cccccccccccccccccccccccccccccccccccccccccccccccc"
       inkscape:export-xdpi="90"
       inkscape:export-ydpi="90" />
    <path
       style="fill:none;fill-opacity:1;fill-rule:evenodd;stroke:#c96e31;stroke-width:0.2;stroke-linecap:butt;stroke-linejoin:miter;stroke-miterlimit:4;stroke-dasharray:none;stroke-opacity:1;opacity:0.98"
       d="m 36.654256,42.918727 0.01335,-1.058691 0.05062,-1.064568 0.135139,-0.86759 0.352156,-1.11535 0.659723,-0.720577 1.353431,-0.859782 1.242767,-0.813132 1.19371,-0.942072 1.155081,-1.03666 0.72147,-0.699009 0.579264,-0.676523 0.725248,-0.930209 0.594208,-0.95128 0.249239,-0.840603 0.130721,-0.893095 0.06426,-0.89911 -0.02114,-0.705345 0.802545,-0.104369 1.162913,0.05124 0.780147,0.377796 0.351706,0.586849 0.451868,0.893452 0.111605,0.716558 0.04815,0.905073 0.0064,0.923752 -0.295961,0.946514 -0.330028,0.807541 -0.507375,0.824679 -0.536566,0.755025 -0.63629,0.742286 -0.596944,0.626298 -0.567025,0.421774 -0.630249,0.680302 -0.357491,0.720633 -0.173915,0.76949 -0.119727,0.868674 -0.148278,0.960934 -0.190999,0.876809 -0.323918,0.748371 -0.343052,0.852707 -0.887856,0.287015 -1.190539,0.08104 -1.444353,0 -1.400667,0 -1.310503,-0.08052 -0.713024,-0.475933 z"
       id="path6763-3-6-7"
       inkscape:connector-curvature="0"
       sodipodi:nodetypes="cccccccccccccccccccccccccccccccccccccccccccccccc"
       inkscape:export-xdpi="90"
       inkscape:export-ydpi="90" />
    <path
       style="fill:#c96e31;fill-opacity:1;fill-rule:evenodd;stroke:none;stroke-width:1px;stroke-linecap:butt;stroke-linejoin:miter;stroke-opacity:1;opacity:0.98"
       d="m 19.972927,35.080891 -0.695257,0.6155 -1.182974,0.921155 -1.231617,0.795544 -1.341872,0.841003 -0.65375,0.704624 -0.348925,1.090433 -0.134252,0.848778 -0.04994,1.041385 -0.01362,1.035402 0.208188,0.675314 0.706931,0.465362 1.299067,0.07836 1.38792,0 1.432023,0 1.179731,-0.07896 0.880097,-0.280534 0.339846,-0.834423 0.321037,-0.731541 0.18938,-0.857751 0.147223,-0.939698 0.118687,-0.849377 0.172517,-0.753074 0.354114,-0.704624 0.624564,-0.665146 0.562303,-0.412726 0.591487,-0.612509 0.63105,-0.725559 0.479935,-0.666941 -5.973894,0 z"
       id="path6763-8-2"
       inkscape:connector-curvature="0"
       inkscape:export-xdpi="90"
       inkscape:export-ydpi="90" />
    <path
       style="fill:none;fill-opacity:1;fill-rule:evenodd;stroke:#c96e31;stroke-width:0.2;stroke-linecap:butt;stroke-linejoin:miter;stroke-miterlimit:4;stroke-dasharray:none;stroke-opacity:1;opacity:0.98"
       d="m 24.089284,28.302353 -0.795784,0.101685 0.0214,0.690269 -0.06421,0.879284 -0.129063,0.873304 -0.247102,0.821861 -0.588894,0.930726 -0.719253,0.90979 -0.573976,0.661557 -0.715363,0.683689 -0.287313,0.254215 5.908388,0 0.457887,-0.734532 0.326873,-0.789561 0.293152,-0.925941 -0.0058,-0.90321 -0.04799,-0.885266 L 26.81133,30.169785 26.363825,29.295884 26.014896,28.721658 25.241821,28.352 24.089328,28.30235 Z"
       id="path6763-9-6"
       inkscape:connector-curvature="0"
       inkscape:export-xdpi="90"
       inkscape:export-ydpi="90" />
  </g>
</svg>
